SplineFontDB: 3.0
FontName: Sivtsev-Eye-Chart
FullName: Sivtsev Eye Chart
FamilyName: Sivtsev
Weight: Medium
Copyright: Copyright (c) 2017, Alexander Sapozhnikov,,,
UComments: "2017-11-16: Created with FontForge (http://fontforge.org)"
Version: 001.000
ItalicAngle: 0
UnderlinePosition: -100
UnderlineWidth: 50
Ascent: 800
Descent: 200
InvalidEm: 0
LayerCount: 2
Layer: 0 0 "Back" 1
Layer: 1 0 "Fore" 0
XUID: [1021 362 -1189592357 518022]
FSType: 0
OS2Version: 0
OS2_WeightWidthSlopeOnly: 0
OS2_UseTypoMetrics: 1
CreationTime: 1510809267
ModificationTime: 1574507740
PfmFamily: 33
TTFWeight: 500
TTFWidth: 5
LineGap: 90
VLineGap: 0
OS2TypoAscent: 0
OS2TypoAOffset: 1
OS2TypoDescent: 0
OS2TypoDOffset: 1
OS2TypoLinegap: 90
OS2WinAscent: 0
OS2WinAOffset: 1
OS2WinDescent: 0
OS2WinDOffset: 1
HheadAscent: 0
HheadAOffset: 1
HheadDescent: 0
HheadDOffset: 1
OS2Vendor: 'PfEd'
MarkAttachClasses: 1
DEI: 91125
LangName: 1033
Encoding: UnicodeFull
UnicodeInterp: none
NameList: AGL For New Fonts
DisplaySize: -72
AntiAlias: 1
FitToEm: 0
WinInfo: 702 26 10
BeginPrivate: 0
EndPrivate
TeXData: 1 0 0 346030 173015 115343 0 1048576 115343 783286 444596 497025 792723 393216 433062 380633 303038 157286 324010 404750 52429 2506097 1059062 262144
BeginChars: 1114112 52

StartChar: uni0428
Encoding: 1064 1064 0
Width: 1000
VWidth: 0
HStem: 0 159.999<259.997 420.002 579.998 739.999>
VStem: 100 159.997<159.999 800> 420.002 159.996<159.999 800> 739.999 160.001<159.999 800>
LayerCount: 2
Fore
SplineSet
100 0 m 1
 100 800 l 1
 259.997070312 800 l 1
 259.997070312 159.999023438 l 1
 420.001953125 159.999023438 l 1
 420.001953125 800 l 1
 579.998046875 800 l 1
 579.998046875 159.999023438 l 1
 739.999023438 159.999023438 l 1
 739.999023438 800 l 1
 900 800 l 1
 900 0 l 1
 100 0 l 1
EndSplineSet
Validated: 1
EndChar

StartChar: uni0411
Encoding: 1041 1041 1
Width: 1000
VWidth: 0
HStem: 0 160.04<259.96 713.817> 319.979 160.041<259.96 713.817> 639.96 160.04<259.96 900>
VStem: 100 159.96<160.04 319.979 480.021 639.96> 740.04 159.96<186.064 294.034>
CounterMasks: 1 e0
LayerCount: 2
Fore
SplineSet
100 800 m 1
 900 800 l 1
 900 639.959960938 l 1
 259.959960938 639.959960938 l 1
 259.959960938 480.020507812 l 1
 660.009765625 480.020507812 l 2
 792.561523438 480.020507812 900 372.595703125 900 240.060546875 c 0
 900 107.533203125 792.561523438 0 660.009765625 0 c 2
 100 0 l 1
 100 800 l 1
259.959960938 319.979492188 m 1
 259.959960938 160.040039062 l 1
 660.009765625 160.040039062 l 2
 704.202148438 160.040039062 740.040039062 195.885742188 740.040039062 240.060546875 c 0
 740.040039062 284.239257812 704.202148438 319.979492188 660.009765625 319.979492188 c 2
 259.959960938 319.979492188 l 1
EndSplineSet
Validated: 1
EndChar

StartChar: uni0413
Encoding: 1043 1043 2
Width: 1000
VWidth: 0
Flags: W
HStem: 0 21G<100 260> 639.96 160.04<259.96 900>
VStem: 100 160<0 639.96>
LayerCount: 2
Fore
SplineSet
260 0 m 29
 100 0 l 1
 100 800 l 1
 900 800 l 1
 900 639.959960938 l 1
 259.959960938 639.959960938 l 1
 260 0 l 29
EndSplineSet
Validated: 1
EndChar

StartChar: uni0415
Encoding: 1045 1045 3
Width: 1000
VWidth: 0
Flags: W
HStem: 0 160<260 900> 320 160<260 900> 640 160<260 900>
VStem: 100 160<160 320 480 640>
CounterMasks: 1 e0
LayerCount: 2
Fore
SplineSet
100 800 m 1
 900 800 l 1
 900 640 l 1
 260 640 l 1
 260 480 l 1
 900 480 l 1
 900 320 l 1
 260 320 l 1
 260 160 l 1
 900 160 l 1
 900 0 l 1
 100 0 l 1
 100 800 l 1
EndSplineSet
Validated: 1
EndChar

StartChar: uni041F
Encoding: 1055 1055 4
Width: 1000
VWidth: 0
Flags: W
HStem: 0 21G<100 260 740 900> 640 160<260 740>
VStem: 100 160<0 640> 740 160<0 640>
LayerCount: 2
Fore
SplineSet
740 640 m 1
 260 640 l 1
 260 0 l 1
 100 0 l 1
 100 800 l 1
 900 800 l 1
 900 0 l 1
 740 0 l 1
 740 640 l 1
EndSplineSet
Validated: 1
EndChar

StartChar: uni041D
Encoding: 1053 1053 5
Width: 1000
VWidth: 0
HStem: 0 21G<100 259.993 739.99 900> 320.003 159.994<259.993 739.99> 779.992 20G<100 259.993 739.99 900>
VStem: 100 159.993<0 320.003 479.997 799.992> 739.99 160.01<0 320.003 479.997 799.992>
LayerCount: 2
Fore
SplineSet
100 0 m 1
 100 799.9921875 l 1
 259.993164062 799.9921875 l 1
 259.993164062 479.997070312 l 1
 739.990234375 479.997070312 l 1
 739.990234375 799.9921875 l 1
 900 799.9921875 l 1
 900 0 l 1
 739.990234375 0 l 1
 739.990234375 320.002929688 l 1
 259.993164062 320.002929688 l 1
 259.993164062 0 l 1
 100 0 l 1
EndSplineSet
Validated: 1
EndChar

StartChar: uni041C
Encoding: 1052 1052 6
Width: 1000
VWidth: 0
HStem: 0 21G<100 260 412.113 587.887 740 900> 780 20G<100 267.895 732.105 900>
VStem: 100 160<0 420> 740 160<0 420>
LayerCount: 2
Fore
SplineSet
485 230 m 1
 500 175 l 1
 515 230 l 1
 740 800 l 1
 900 800 l 1
 900 0 l 1
 740 0 l 1
 740 420 l 1
 720 355 l 1
 580 0 l 1
 420 0 l 1
 280 355 l 1
 260 420 l 1
 260 0 l 1
 100 0 l 1
 100 800 l 1
 260 800 l 1
 485 230 l 1
EndSplineSet
EndChar

StartChar: uni0418
Encoding: 1048 1048 7
Width: 1000
VWidth: 0
HStem: 0 21G<100 260.044 740.029 900> 780 20G<100 260.044 740.029 900>
VStem: 100 160.044<0 40.0557 280.002 800> 740.029 159.971<0 519.974 759.969 800>
LayerCount: 2
Fore
SplineSet
100 0 m 1
 100 800 l 1
 260.043945312 800 l 1
 260.043945312 280.001953125 l 1
 740.029296875 759.96875 l 1
 740.029296875 800 l 1
 900 800 l 1
 900 0 l 1
 740.029296875 0 l 1
 740.029296875 519.973632812 l 1
 260.043945312 40.0556640625 l 1
 260.043945312 0 l 1
 100 0 l 1
EndSplineSet
Validated: 1
EndChar

StartChar: uni042B
Encoding: 1067 1067 8
Width: 1000
VWidth: 0
HStem: 0 160.223<260.223 473.809> 319.841 160.221<260.223 473.809> 779.9 20G<100 260.223 740.044 900>
VStem: 100 160.223<160.223 319.841 480.062 799.9> 500.254 159.618<186.096 293.985> 740.044 159.956<0.123047 800>
LayerCount: 2
Fore
SplineSet
100 799.900390625 m 1
 260.22265625 799.900390625 l 1
 260.22265625 480.061523438 l 1
 419.83984375 480.061523438 l 2
 552.34765625 480.061523438 659.872070312 372.611328125 659.872070312 240.03125 c 0
 659.872070312 107.5703125 552.34765625 0 419.83984375 0 c 2
 100 0 l 1
 100 799.900390625 l 1
260.22265625 319.840820312 m 1
 260.22265625 160.22265625 l 1
 419.83984375 160.22265625 l 2
 464.000976562 160.22265625 500.25390625 195.8671875 500.25390625 240.03125 c 0
 500.25390625 284.192382812 464.000976562 319.840820312 419.83984375 319.840820312 c 2
 260.22265625 319.840820312 l 1
740.043945312 0.123046875 m 1
 740.043945312 800 l 1
 900 800 l 1
 900 0.123046875 l 1
 740.043945312 0.123046875 l 1
EndSplineSet
Validated: 1
EndChar

StartChar: uni042A
Encoding: 1066 1066 9
Width: 1000
VWidth: 0
HStem: 0 160.223<500.223 713.809> 319.841 160.221<500.223 713.809> 640 160<100 340>
VStem: 340 160.223<160.223 319.841 480.062 640> 740.254 159.618<186.096 293.985>
LayerCount: 2
Fore
SplineSet
100 800 m 1
 500.22265625 799.900390625 l 1
 500.22265625 480.061523438 l 1
 659.83984375 480.061523438 l 2
 792.34765625 480.061523438 899.872070312 372.611328125 899.872070312 240.03125 c 0
 899.872070312 107.5703125 792.34765625 0 659.83984375 0 c 2
 340 0 l 1
 340 640 l 1
 100 640 l 1
 100 800 l 1
500.22265625 319.840820312 m 1
 500.22265625 160.22265625 l 1
 659.83984375 160.22265625 l 2
 704.000976562 160.22265625 740.25390625 195.8671875 740.25390625 240.03125 c 0
 740.25390625 284.192382812 704.000976562 319.840820312 659.83984375 319.840820312 c 2
 500.22265625 319.840820312 l 1
EndSplineSet
Validated: 1
EndChar

StartChar: uni0420
Encoding: 1056 1056 10
Width: 1000
VWidth: 0
Flags: W
HStem: 0 21G<100 259.062> 320 160<260 713.718> 640 160<260 713.718>
VStem: 100 160<0 320 480 640> 740 160<505.97 614.03>
LayerCount: 2
Fore
SplineSet
260 320 m 1
 259 0 l 1
 100 0 l 1
 100 800 l 1
 660 800 l 2
 793 800 900 693 900 560 c 0
 900 427 793 320 660 320 c 2
 260 320 l 1
260 480 m 1
 660 480 l 2
 704 480 740 516 740 560 c 0
 740 604 704 640 660 640 c 2
 260 640 l 1
 260 519 l 4
 260 480 l 1
EndSplineSet
Validated: 1
EndChar

StartChar: uni041A
Encoding: 1050 1050 11
Width: 1000
VWidth: 0
HStem: 0 21G<100 259.799 739.698 900> 319.898 160.203<259.799 605.947> 780 20G<100 259.799 739.698 900>
VStem: 100 159.799<0 319.898 480.102 800> 739.698 160.302<0.0362407 149.61 649.948 800>
LayerCount: 2
Fore
SplineSet
100 800 m 1
 259.798828125 800 l 1
 259.798828125 480.1015625 l 1
 540.077148438 480.1015625 l 2
 580 480.1015625 659.890625 520.041015625 699.875 599.999023438 c 0
 739.469289005 678.994548038 739.698273543 797.227527404 739.698273543 799.952052855 c 0
 739.698242188 800 l 1
 900 800 l 1
 900.000015428 799.959974178 l 0
 900.000015428 797.074737158 899.818804667 638.925200849 860.178710938 559.697265625 c 0
 820.131835938 479.717773438 739.698242188 400 739.698242188 400 c 1
 739.698242188 400 820.131835938 319.798828125 860.178710938 239.798828125 c 0
 899.827281956 160.514270784 900.000013345 2.77895520907 900.000013345 0.0362407455555 c 0
 900 0 l 1
 739.698242188 0 l 1
 739.69826947 0.0437108508804 l 0
 739.69826947 2.64643609979 739.47954951 120.904873354 699.875 200.000976562 c 0
 659.890626529 279.977535814 580.083982583 319.898437572 540.080084073 319.898437572 c 0
 540.077148438 319.8984375 l 2
 259.798828125 319.8984375 l 1
 259.798828125 0 l 1
 100 0 l 1
 100 800 l 1
EndSplineSet
Validated: 1
EndChar

StartChar: uni0425
Encoding: 1061 1061 12
Width: 1000
VWidth: 0
HStem: 0 21G<100 260.303 739.697 900> 319.898 160.203<394.052 605.948> 780 20G<100 260.303 739.697 900>
VStem: 100 160.303<0.0366403 149.615 649.949 800> 739.697 160.303<0.0366403 149.615 649.949 800>
LayerCount: 2
Fore
SplineSet
100 800 m 1
 260.302734375 800 l 1
 260.302702629 799.951658154 l 0
 260.302702629 797.216131952 260.532619108 678.990752458 300.125 600 c 0
 340.109375 520.041992188 419.999023438 480.1015625 459.921875 480.1015625 c 2
 540.078125 480.1015625 l 2
 580.000976562 480.1015625 659.890625 520.041992188 699.875 600 c 0
 739.467380892 678.990752458 739.697297371 797.216131952 739.697297371 799.951658154 c 0
 739.697265625 800 l 1
 900 800 l 1
 900.000015429 799.959972489 l 0
 900.000015429 797.074684259 899.818804749 638.9261508 860.1796875 559.697265625 c 0
 820.131835938 479.717773438 739.697265625 400 739.697265625 400 c 1
 739.697265625 400 820.131835938 319.798828125 860.1796875 239.798828125 c 0
 899.826339374 160.519076471 900.000013567 2.79424199008 900.000013567 0.0366403319275 c 0
 900 0 l 1
 739.697265625 0 l 1
 739.697293264 0.0440878881223 l 0
 739.697293264 2.65782166256 739.477639385 120.907711594 699.875 200 c 0
 659.890626529 279.97753579 580.084959098 319.898437572 540.081060635 319.898437572 c 0
 540.078125 319.8984375 l 2
 459.921875 319.8984375 l 2
 459.918939365 319.898437572 l 0
 419.915040902 319.898437572 340.109373471 279.97753579 300.125 200 c 0
 260.522360615 120.907711594 260.302706736 2.65782166256 260.302706736 0.0440878881222 c 0
 260.302734375 0 l 1
 100 0 l 1
 99.9999864326 0.0366403319275 l 0
 99.9999864326 2.79424199008 100.173660626 160.519076471 139.8203125 239.798828125 c 0
 179.868164062 319.798828125 260.302734375 400 260.302734375 400 c 1
 260.302734375 400 179.868164062 479.717773438 139.8203125 559.697265625 c 0
 100.181195251 638.9261508 99.9999845709 797.074684259 99.9999845709 799.959972489 c 0
 100 800 l 1
EndSplineSet
Validated: 1
EndChar

StartChar: uni0416
Encoding: 1046 1046 13
Width: 1000
VWidth: 0
HStem: 0 21G<100 260.303 420 580 739.697 900> 780 20G<100 260.303 420 580 739.697 900>
VStem: 100 160.303<0.0366403 149.615 649.949 800> 420 160<0 310.998 489.02 800> 739.697 160.303<0.0366403 149.615 649.949 800>
LayerCount: 2
Fore
SplineSet
100 800 m 1
 260.302734375 800 l 1
 260.302702629 799.951658154 l 0
 260.302702629 797.216131952 260.532619108 678.990752458 300.125 600 c 0
 329.216796875 541.82421875 379.421875 504.856445312 420 489.01953125 c 1
 420 800 l 1
 580 800 l 1
 580 489.01953125 l 1
 620.578125 504.856445312 670.783203125 541.82421875 699.875 600 c 0
 739.467380892 678.990752458 739.697297371 797.216131952 739.697297371 799.951658154 c 0
 739.697265625 800 l 1
 900 800 l 1
 900.000015429 799.959972489 l 0
 900.000015429 797.074684259 899.818804749 638.9261508 860.1796875 559.697265625 c 0
 820.131835938 479.717773438 739.697265625 400 739.697265625 400 c 1
 739.697265625 400 820.131835938 319.798828125 860.1796875 239.798828125 c 0
 899.826339374 160.519076471 900.000013567 2.79424199008 900.000013567 0.0366403319275 c 0
 900 0 l 1
 739.697265625 0 l 1
 739.697293264 0.0440878881223 l 0
 739.697293264 2.65782166256 739.477639385 120.907711594 699.875 200 c 0
 670.774414062 258.208007812 620.591796875 295.173828125 580 310.998046875 c 1
 580 0 l 1
 420 0 l 1
 420 310.998046875 l 1
 379.408203125 295.173828125 329.225585938 258.208007812 300.125 200 c 0
 260.522360615 120.907711594 260.302706736 2.65782166256 260.302706736 0.0440878881222 c 0
 260.302734375 0 l 1
 100 0 l 1
 99.9999864326 0.0366403319275 l 0
 99.9999864326 2.79424199008 100.173660626 160.519076471 139.8203125 239.798828125 c 0
 179.868164062 319.798828125 260.302734375 400 260.302734375 400 c 1
 260.302734375 400 179.868164062 479.717773438 139.8203125 559.697265625 c 0
 100.181195251 638.9261508 99.9999845709 797.074684259 99.9999845709 799.959972489 c 0
 100 800 l 1
EndSplineSet
Validated: 1
EndChar

StartChar: uni042C
Encoding: 1068 1068 14
Width: 1000
VWidth: 0
Flags: W
HStem: 0 160<260 713.718> 320 160<260 713.718> 780 20G<100 259.062>
VStem: 100 160<160 320 480 800> 740 160<185.97 294.03>
LayerCount: 2
Fore
SplineSet
260 480 m 5
 660 480 l 6
 793 480 900 373 900 240 c 4
 900 107 793 0 660 0 c 6
 100 0 l 5
 100 800 l 5
 259 800 l 5
 260 480 l 5
260 320 m 5
 260 281 l 4
 260 160 l 5
 660 160 l 6
 704 160 740 196 740 240 c 4
 740 284 704 320 660 320 c 6
 260 320 l 5
EndSplineSet
Validated: 1
EndChar

StartChar: uni042F
Encoding: 1071 1071 15
Width: 1000
VWidth: 0
HStem: 0 21G<100 260.303 740 900> 319.98 160.039<394.016 740.041> 639.959 160.041<286.182 740.041>
VStem: 100 159.959<0.0366403 149.615 507.045 613.936> 740 160<0 319.98 480.02 639.959>
LayerCount: 2
Fore
SplineSet
339.990234375 800 m 2
 900 800 l 1
 900 0 l 1
 740 0 l 1
 740.041015625 319.98046875 l 1
 459.716796875 319.98046875 l 1
 459.921875 319.8984375 l 1
 459.918939365 319.898437572 l 0
 419.915040902 319.898437572 340.109373471 279.97753579 300.125 200 c 0
 260.522360615 120.907711594 260.302706736 2.65782166256 260.302706736 0.0440878881222 c 0
 260.302734375 0 l 1
 100 0 l 1
 99.9999864326 0.0366403319275 l 0
 99.9999864326 2.79424199008 100.173660626 160.519076471 139.8203125 239.798828125 c 0
 160.615234375 281.338867188 192.28515625 322.904296875 217.943359375 353.296875 c 1
 147.345703125 395.0703125 100 471.965820312 100 559.939453125 c 0
 100 692.466796875 207.438476562 800 339.990234375 800 c 2
339.990234375 639.958984375 m 2
 295.797851562 639.958984375 259.958984375 604.114257812 259.958984375 559.939453125 c 0
 259.958984375 515.760742188 295.797851562 480.01953125 339.990234375 480.01953125 c 2
 740.041015625 480.01953125 l 1
 740.041015625 639.958984375 l 1
 339.990234375 639.958984375 l 2
EndSplineSet
Validated: 1
EndChar

StartChar: Pi
Encoding: 928 928 21
Width: 1000
VWidth: 0
Flags: W
HStem: 0 21G<100 260 740 900> 640 160<260 740>
VStem: 100 160<0 640> 740 160<0 640>
LayerCount: 2
Fore
SplineSet
740 640 m 1
 260 640 l 1
 260 0 l 1
 100 0 l 1
 100 800 l 1
 900 800 l 1
 900 0 l 1
 740 0 l 1
 740 640 l 1
EndSplineSet
Validated: 1
EndChar

StartChar: L
Encoding: 76 76 30
Width: 1000
VWidth: 0
Flags: W
HStem: 0 160<260 900> 780 20G<100 260>
VStem: 100 160<160 800>
LayerCount: 2
Fore
SplineSet
260 800 m 29
 260 160 l 5
 900 160 l 5
 900 0 l 5
 100 0 l 5
 100 800 l 5
 260 800 l 29
EndSplineSet
Validated: 1
EndChar

StartChar: R
Encoding: 82 82 31
Width: 1000
VWidth: 0
Flags: W
HStem: 0 21G<100 260 736 900> 320 160<260 605.976> 640 160<260 713.718>
VStem: 100 160<0 320 480 640> 740 160<0 148.887 507.11 614.03>
LayerCount: 2
Fore
SplineSet
660 800 m 6
 793 800 900 693 900 560 c 4
 900 472 853 395 782 353 c 5
 808 323 839 282 860 240 c 4
 900 160 900 0 900 0 c 5
 740 0 l 5
 740 0 740 120 700 200 c 4
 660 280 580 320 540 320 c 5
 260 320 l 5
 260 0 l 5
 100 0 l 5
 100 800 l 5
 660 800 l 6
660 640 m 6
 260 640 l 5
 260 480 l 5
 660 480 l 6
 704 480 740 516 740 560 c 4
 740 604 704 640 660 640 c 6
EndSplineSet
Validated: 1
EndChar

StartChar: Nu
Encoding: 925 925 32
Width: 1000
VWidth: 0
Flags: W
HStem: 0 21G<100 260 740 900> 780 20G<100 260 740 900>
VStem: 100 160<0 520 760 800> 740 160<0 40 280 800>
LayerCount: 2
Fore
SplineSet
900 0 m 5
 740 0 l 5
 740 40 l 5
 260 520 l 5
 260 0 l 5
 100 0 l 5
 100 800 l 5
 260 800 l 5
 260 760 l 5
 740 280 l 5
 740 800 l 5
 900 800 l 5
 900 0 l 5
EndSplineSet
Validated: 1
EndChar

StartChar: uni0422
Encoding: 1058 1058 34
Width: 1000
VWidth: 0
HStem: 0 21G<420 580> 640 160<100 420 580 900>
VStem: 420 160<0 640>
LayerCount: 2
Fore
SplineSet
100 800 m 1
 900 800 l 1
 900 640 l 1
 580 640 l 1
 580 0 l 1
 420 0 l 1
 420 640 l 1
 100 640 l 1
 100 800 l 1
EndSplineSet
Validated: 1
EndChar

StartChar: uni0412
Encoding: 1042 1042 35
Width: 1000
VWidth: 0
HStem: 0 160.041<259.959 713.818> 319.98 160.039<259.959 713.818> 639.959 160.041<259.959 713.818>
VStem: 100 159.959<160.041 319.98 480.02 639.959> 740.041 159.959<186.064 293.479 506.521 613.936>
CounterMasks: 1 e0
LayerCount: 2
Fore
SplineSet
100 800 m 1
 660.009765625 800 l 2
 792.561523438 800 900 692.466796875 900 559.939453125 c 0
 900 498.490234375 876.893554688 442.44921875 838.908203125 400 c 1
 876.893554688 357.55078125 900 301.509765625 900 240.060546875 c 0
 900 107.533203125 792.561523438 0 660.009765625 0 c 2
 100 0 l 1
 100 800 l 1
259.958984375 639.958984375 m 1
 259.958984375 480.01953125 l 1
 660.009765625 480.01953125 l 2
 704.202148438 480.01953125 740.041015625 515.760742188 740.041015625 559.939453125 c 0
 740.041015625 604.114257812 704.202148438 639.958984375 660.009765625 639.958984375 c 2
 259.958984375 639.958984375 l 1
259.958984375 319.98046875 m 1
 259.958984375 160.041015625 l 1
 660.009765625 160.041015625 l 2
 704.202148438 160.041015625 740.041015625 195.885742188 740.041015625 240.060546875 c 0
 740.041015625 284.239257812 704.202148438 319.98046875 660.009765625 319.98046875 c 2
 259.958984375 319.98046875 l 1
EndSplineSet
Validated: 1
EndChar

StartChar: uni041E
Encoding: 1054 1054 36
Width: 1000
VWidth: 0
HStem: 0 150<401.395 598.605> 650 150<401.395 598.605>
VStem: 100 150<301.395 498.605> 750 150<301.395 498.605>
LayerCount: 2
Fore
SplineSet
500 800 m 0
 720.799804688 800 900 620.799804688 900 400 c 0
 900 179.200195312 720.799804688 0 500 0 c 0
 279.200195312 0 100 179.200195312 100 400 c 0
 100 620.799804688 279.200195312 800 500 800 c 0
500 650 m 0
 362 650 250 538 250 400 c 0
 250 262 362 150 500 150 c 0
 638 150 750 262 750 400 c 0
 750 538 638 650 500 650 c 0
EndSplineSet
Validated: 1
EndChar

StartChar: uni0417
Encoding: 1047 1047 43
Width: 1000
VWidth: 0
HStem: 0.0410156 160.041<100 713.818> 320.021 160.039<100 713.818> 640 160.041<100 713.818>
VStem: 740.041 159.959<186.065 293.478 506.521 613.936>
CounterMasks: 1 e0
LayerCount: 2
Fore
SplineSet
100 800.041015625 m 1
 660.009765625 800 l 2
 792.561523438 800 900 692.466796875 900 559.939453125 c 0
 900 498.490234375 876.893554688 442.44921875 838.908203125 400 c 1
 876.893554688 357.55078125 900 301.509765625 900 240.060546875 c 0
 900 107.539219871 792.55322523 -6.65035656766e-07 660.009765625 -6.65035656766e-07 c 2
 100 0.041015625 l 1
 100 160.08203125 l 1
 660.009765625 160.041015625 l 2
 704.202148438 160.041015625 740.041015625 195.885742188 740.041015625 240.060546875 c 0
 740.041015625 284.239257812 704.202148438 319.977539062 660.009765625 319.98046875 c 2
 100 320.021484375 l 1
 100 480.060546875 l 1
 660.009765625 480.01953125 l 2
 704.202148438 480.01953125 740.041015625 515.760742188 740.041015625 559.939453125 c 0
 740.041015625 604.114257812 704.202148438 639.956054688 660.009765625 639.958984375 c 2
 100 640 l 1
 100 800.041015625 l 1
EndSplineSet
Validated: 1
EndChar

StartChar: F
Encoding: 70 70 45
Width: 1000
VWidth: 0
Flags: W
HStem: 0 21G<100 260> 320 160<260 900> 640 160<260 900>
VStem: 100 160<0 320 480 640>
LayerCount: 2
Fore
SplineSet
260 0 m 5
 100 0 l 1
 100 800 l 1
 900 800 l 1
 900 640 l 1
 260 640 l 1
 260 480 l 1
 900 480 l 1
 900 320 l 1
 260 320 l 1
 260 0 l 5
EndSplineSet
EndChar

StartChar: underscore
Encoding: 95 95 46
Width: 1000
VWidth: 0
Flags: W
HStem: -200 100<0 1000>
LayerCount: 2
Fore
SplineSet
0 -100 m 1
 1000 -100 l 1
 1000 -200 l 1
 0 -200 l 1
 0 -100 l 1
EndSplineSet
EndChar

StartChar: Xi
Encoding: 926 926 47
Width: 1000
VWidth: 0
Flags: W
HStem: 0 160<100 900> 320 160<100 900> 640 160<100 900>
CounterMasks: 1 e0
LayerCount: 2
Fore
SplineSet
100 800 m 1
 900 800 l 1
 900 640 l 1
 100 640 l 1
 100 800 l 1
100 320 m 1
 100 480 l 1
 900 480 l 1
 900 320 l 1
 100 320 l 1
100 0 m 5
 100 160 l 1
 900 160 l 1
 900 0 l 1
 100 0 l 5
EndSplineSet
EndChar

StartChar: V
Encoding: 86 86 48
Width: 1000
VWidth: 0
Flags: W
HStem: 0 21G<412 588> 780 20G<100 270.789 729.211 900>
LayerCount: 2
Fore
SplineSet
100 800 m 0
 263 800 l 1
 485 230 l 1
 500 175 l 1
 515 230 l 1
 737 800 l 1
 900 800 l 0
 580 0 l 1
 420 0 l 1
 100 800 l 0
EndSplineSet
EndChar

StartChar: uni0394
Encoding: 916 916 51
Width: 1000
VWidth: 0
Flags: WO
HStem: 0 160<325.316 674.684> 780 20G<412 588>
LayerCount: 2
Fore
SplineSet
900 0 m 5
 100 0 l 5
 420 800 l 1
 580 800 l 1
 900 0 l 5
674.684210526 160 m 1
 515 570 l 1
 500 625 l 1
 485 570 l 1
 325.315789474 160 l 1
 674.684210526 160 l 1
EndSplineSet
EndChar
